:SAMPLES-PER-SECOND 30
:FULLY-SPECIFIED
:DEGREES
154
root  48.0958 40.6289 2.55807 131.24 89.5501 131.435
RightUpLeg  -1.69316 -7.89161 -5.76517
RightLeg  4.83833 1.07154 3.20054
RightFoot  -0.808589 0.0316269 -0.368884
RightToes  -2.9104e-010 0 -3.6325e-017
Spine  2.94355 2.87325 5.59358
Spine1  16.0132 5.49531 -6.81642
HEad  -18.1492 -2.10783 1.01268
LeftShoulder1  9.64933 -14.9007 -45.7155
LeftArm  -9.54272 15.4277 -28.0959
LeftForeArm  24.4639 -16.7538 -4.17923
LeftHand  -0.244104 0.0205437 5.32207
RightShoulder  6.74694 12.0007 37.4849
RightArm  -6.06146 29.5638 34.1039
RightForeArm  -17.6302 61.4808 22.9825
RightHand  -2.79021 7.93708 -24.2668
LeftUpLeg  0.598476 3.96618 1.93125
LeftLeg  2.21887 7.2986 -3.09881
LeftFoot  -1.273 -0.0856074 1.0187
LeftToes  1.09107e-011 -5.80176e-011 5.60941e-012
155
root  48.1124 40.6254 2.57514 83.4465 89.6413 83.7286
RightUpLeg  -1.73544 -7.84674 -5.71732
RightLeg  5.02648 1.36418 3.18638
RightFoot  -0.85401 0.0367467 -0.445061
RightToes  -2.9104e-010 0 -3.6325e-017
Spine  2.83854 2.98955 5.50738
Spine1  16.1284 5.54467 -6.59206
HEad  -17.4955 -2.55339 0.965969
LeftShoulder1  9.65633 -14.8318 -45.9277
LeftArm  -9.17619 15.1007 -27.8847
LeftForeArm  24.1736 -17.7361 -4.04156
LeftHand  -0.244104 0.0205437 5.32207
RightShoulder  6.88807 12.1555 37.9401
RightArm  -6.57193 29.5869 33.8503
RightForeArm  -17.2018 61.1851 22.6836
RightHand  -3.03816 8.63956 -25.0784
LeftUpLeg  0.761819 4.02555 1.97003
LeftLeg  2.23194 7.59608 -3.10586
LeftFoot  -1.32318 -0.0876669 1.06451
LeftToes  1.09107e-011 -5.80176e-011 5.60941e-012
156
root  48.1155 40.6222 2.57892 32.4054 89.3438 32.8037
RightUpLeg  -1.73766 -7.85737 -5.73929
RightLeg  5.13038 1.83455 3.19834
RightFoot  -0.865362 0.0389319 -0.476178
RightToes  -2.9104e-010 0 -3.6325e-017
Spine  2.69427 3.13486 5.64043
Spine1  16.2676 5.75036 -6.72153
HEad  -16.6261 -2.6807 1.01484
LeftShoulder1  9.6679 -14.845 -45.9506
LeftArm  -8.91695 14.5394 -27.7122
LeftForeArm  24.1914 -18.5177 -3.93009
LeftHand  -0.244104 0.0205437 5.32207
RightShoulder  6.8712 12.1884 37.7463
RightArm  -4.18349 30.9083 33.4543
RightForeArm  -20.9389 57.4293 19.6419
RightHand  -3.07912 8.7544 -25.2016
LeftUpLeg  0.955763 4.07721 1.96675
LeftLeg  2.21572 8.02025 -3.148
LeftFoot  -1.35738 -0.0900692 1.11482
LeftToes  1.09107e-011 -5.80176e-011 5.60941e-012
157
root  48.1046 40.6221 2.57588 22.0891 88.9328 22.5718
RightUpLeg  -1.73323 -7.87267 -5.76792
RightLeg  5.12549 2.27718 3.2088
RightFoot  -0.825261 0.0401197 -0.492429
RightToes  -2.9104e-010 0 -3.6325e-017
Spine  2.59542 3.19732 5.81585
Spine1  16.1957 5.89969 -6.98521
HEad  -15.7532 -2.49257 1.00925
LeftShoulder1  9.68779 -14.8917 -45.9272
LeftArm  -8.8109 14.0388 -27.4644
LeftForeArm  24.3552 -19.3459 -3.80541
LeftHand  -0.244104 0.0205437 5.32207
RightShoulder  6.73874 12.1495 37.0339
RightArm  1.36285 33.1265 33.3488
RightForeArm  -29.1621 51.3626 16.0032
RightHand  -2.93456 8.33245 -24.7716
LeftUpLeg  1.07678 4.11248 1.95019
LeftLeg  2.21155 8.41373 -3.18966
LeftFoot  -1.36013 -0.0933002 1.17658
LeftToes  1.09107e-011 -5.80176e-011 5.60941e-012
158
root  48.0938 40.6231 2.57578 16.5433 88.5492 17.086
RightUpLeg  -1.72526 -7.85571 -5.75833
RightLeg  5.06892 2.65756 3.20601
RightFoot  -0.768207 0.0419029 -0.518657
RightToes  -2.9104e-010 0 -3.6325e-017
Spine  2.65469 3.28371 6.0825
Spine1  15.9064 6.09304 -7.33214
HEad  -15.1348 -2.70516 1.11844
LeftShoulder1  9.70496 -14.9081 -45.969
LeftArm  -8.59686 13.4957 -27.1039
LeftForeArm  24.6031 -20.2805 -3.69599
LeftHand  -0.244104 0.0205437 5.32207
RightShoulder  6.67042 12.2129 36.442
RightArm  7.96264 34.8684 33.0787
RightForeArm  -37.3272 46.2886 13.7685
RightHand  -2.75495 7.7806 -24.2527
LeftUpLeg  1.16444 4.15396 1.95847
LeftLeg  2.22141 8.76652 -3.21851
LeftFoot  -1.36292 -0.0963157 1.23297
LeftToes  1.09107e-011 -5.80176e-011 5.60941e-012
159
root  48.0942 40.6243 2.58356 14.963 88.3103 15.5529
RightUpLeg  -1.68668 -7.85035 -5.76175
RightLeg  5.02094 2.88734 3.20009
RightFoot  -0.75601 0.0426016 -0.528879
RightToes  -2.9104e-010 0 -3.6325e-017
Spine  2.7933 3.41476 6.32719
Spine1  15.6656 6.32203 -7.61666
HEad  -15.0169 -3.44111 1.42793
LeftShoulder1  9.70673 -14.8865 -46.0335
LeftArm  -8.38105 12.9092 -26.7793
LeftForeArm  24.796 -21.5303 -3.6252
LeftHand  -0.244104 0.0205437 5.32207
RightShoulder  6.70755 12.3276 36.3701
RightArm  12.1786 35.2736 32.3873
RightForeArm  -40.3793 44.3056 13.0327
RightHand  -2.70707 7.65256 -24.0711
LeftUpLeg  1.27615 4.15733 1.94939
LeftLeg  2.15482 8.99293 -3.23133
LeftFoot  -1.34739 -0.0965859 1.24404
LeftToes  1.09107e-011 -5.80176e-011 5.60941e-012
160
root  48.0975 40.6249 2.59749 18.4481 88.3987 19.0588
RightUpLeg  -1.63017 -7.89119 -5.82112
RightLeg  5.01565 2.82521 3.19364
RightFoot  -0.803543 0.0408846 -0.502522
RightToes  -2.9104e-010 0 -3.6325e-017
Spine  2.86214 3.41567 6.31542
Spine1  15.626 6.34401 -7.66411
HEad  -15.4136 -3.95224 1.69639
LeftShoulder1  9.69051 -14.8633 -46.014
LeftArm  -8.79386 12.5881 -26.6158
LeftForeArm  25.0914 -23.2911 -3.70567
LeftHand  -0.244104 0.0205437 5.32207
RightShoulder  6.75312 12.3315 36.6406
RightArm  13.0148 34.7823 31.9037
RightForeArm  -38.7941 44.6251 13.1201
RightHand  -2.75376 7.85044 -24.1195
LeftUpLeg  1.36016 4.07684 1.87801
LeftLeg  2.00352 8.9541 -3.21582
LeftFoot  -1.27401 -0.0944469 1.21444
LeftToes  1.09107e-011 -5.80176e-011 5.60941e-012
161
root  48.0891 40.6255 2.61392 25.3244 88.6825 25.9166
RightUpLeg  -1.63073 -7.92718 -5.8732
RightLeg  5.0641 2.5454 3.1811
RightFoot  -0.866739 0.038286 -0.463523
RightToes  -2.9104e-010 0 -3.6325e-017
Spine  2.85873 3.23279 6.07069
Spine1  15.6404 6.096 -7.50973
HEad  -16.0645 -3.76292 1.64046
LeftShoulder1  9.66592 -14.8527 -45.9209
LeftArm  -9.95159 12.6608 -26.5544
LeftForeArm  25.8292 -25.2963 -4.04594
LeftHand  -0.244104 0.0205437 5.32207
RightShoulder  6.78392 12.2847 36.9528
RightArm  12.3148 34.1555 32.0647
RightForeArm  -36.97 45.5903 13.4691
RightHand  -2.75545 7.85028 -24.1341
LeftUpLeg  1.33569 3.98488 1.80691
LeftLeg  1.89784 8.72216 -3.18516
LeftFoot  -1.17831 -0.0929665 1.19123
LeftToes  1.09107e-011 -5.80176e-011 5.60941e-012
162
root  48.0685 40.626 2.62816 29.0824 88.8278 29.631
RightUpLeg  -1.72236 -7.90668 -5.85154
RightLeg  5.13195 2.33879 3.16843
RightFoot  -0.894703 0.0366311 -0.44034
RightToes  -2.9104e-010 0 -3.6325e-017
Spine  2.87685 3.0631 5.86685
Spine1  15.5326 5.84067 -7.33386
HEad  -16.6588 -3.23128 1.25759
LeftShoulder1  9.64927 -14.8368 -45.8801
LeftArm  -10.8499 12.8595 -26.5058
LeftForeArm  26.6799 -27.033 -4.38113
LeftHand  -0.244104 0.0205437 5.32207
RightShoulder  6.86255 12.3464 37.271
RightArm  11.5371 33.6577 32.4478
RightForeArm  -36.6082 46.2313 13.7399
RightHand  -2.73595 7.70211 -24.229
LeftUpLeg  1.23697 3.9746 1.81015
LeftLeg  1.89891 8.57341 -3.17467
LeftFoot  -1.12673 -0.093929 1.20157
LeftToes  1.09107e-011 -5.80176e-011 5.60941e-012
163
root  48.0439 40.6263 2.63303 26.6791 88.7551 27.2164
RightUpLeg  -1.80536 -7.86877 -5.81423
RightLeg  5.15711 2.36519 3.16171
RightFoot  -0.871731 0.0353449 -0.424148
RightToes  -2.9104e-010 0 -3.6325e-017
Spine  2.95829 3.05051 5.89278
Spine1  15.365 5.79432 -7.27704
HEad  -17.0908 -2.97959 0.842997
LeftShoulder1  9.64482 -14.8206 -45.9003
LeftArm  -11.2223 12.9124 -26.5136
LeftForeArm  27.5023 -28.2255 -4.60141
LeftHand  -0.244104 0.0205437 5.32207
RightShoulder  6.97306 12.4703 37.6151
RightArm  10.9331 33.2583 32.6521
RightForeArm  -36.3917 46.4013 13.8088
RightHand  -2.73534 7.63314 -24.3459
LeftUpLeg  1.19603 3.99806 1.8298
LeftLeg  1.90513 8.64419 -3.17789
LeftFoot  -1.10687 -0.0963211 1.22909
LeftToes  1.09107e-011 -5.80176e-011 5.60941e-012
164
root  48.0176 40.626 2.624 26.6562 88.6765 27.2894
RightUpLeg  -1.74406 -7.8955 -5.8749
RightLeg  5.14279 2.48949 3.15796
RightFoot  -0.836367 0.0324844 -0.384875
RightToes  -2.9104e-010 0 -3.6325e-017
Spine  3.10197 3.09097 6.09071
Spine1  15.3212 5.87645 -7.37226
HEad  -17.5361 -3.23017 0.654018
LeftShoulder1  9.62592 -14.8299 -45.7831
LeftArm  -11.441 12.8132 -26.7576
LeftForeArm  28.1297 -28.8997 -4.71951
LeftHand  -0.244104 0.0205437 5.32207
RightShoulder  7.03069 12.5102 37.8572
RightArm  10.5423 32.9435 32.8529
RightForeArm  -35.7202 46.2883 13.7318
RightHand  -2.73635 7.69887 -24.2383
LeftUpLeg  1.2927 3.95179 1.76221
LeftLeg  1.84659 8.76522 -3.16035
LeftFoot  -1.06742 -0.0979335 1.23885
LeftToes  1.09107e-011 -5.80176e-011 5.60941e-012
165
root  47.9909 40.6245 2.60488 33.2016 88.7645 34.0445
RightUpLeg  -1.53544 -8.00854 -6.04471
RightLeg  5.16322 2.51309 3.16711
RightFoot  -0.857076 0.0277139 -0.317418
RightToes  -2.9104e-010 0 -3.6325e-017
Spine  3.31767 3.04133 6.25614
Spine1  15.3923 5.88745 -7.48809
HEad  -18.2168 -3.64892 0.548648
LeftShoulder1  9.56544 -14.8485 -45.437
LeftArm  -11.7052 12.7126 -27.2496
LeftForeArm  28.5163 -29.1216 -4.74903
LeftHand  -0.244104 0.0205437 5.32207
RightShoulder  7.03158 12.485 37.9293
RightArm  10.4035 32.6463 33.2204
RightForeArm  -35.2942 46.1776 13.6651
RightHand  -2.74885 7.89425 -24.0027
LeftUpLeg  1.47671 3.86284 1.63441
LeftLeg  1.80169 8.70791 -3.13678
LeftFoot  -1.02703 -0.0975241 1.21094
LeftToes  1.09107e-011 -5.80176e-011 5.60941e-012
166
root  47.969 40.621 2.58163 43.3214 88.9342 44.3881
RightUpLeg  -1.30954 -8.15018 -6.22267
RightLeg  5.23798 2.42724 3.20727
RightFoot  -0.936377 0.0237085 -0.263429
RightToes  -2.9104e-010 0 -3.6325e-017
Spine  3.59223 2.93284 6.26404
Spine1  15.3587 5.76587 -7.41736
HEad  -19.0916 -3.68445 0.107761
LeftShoulder1  9.49096 -14.8336 -45.1075
LeftArm  -11.7938 12.7653 -27.7172
LeftForeArm  28.7848 -28.9869 -4.70397
LeftHand  -0.244104 0.0205437 5.32207
RightShoulder  7.04588 12.4981 37.9806
RightArm  10.3123 32.2331 33.5144
RightForeArm  -35.1771 46.3786 13.7512
RightHand  -2.7651 8.01713 -23.9274
LeftUpLeg  1.63178 3.82898 1.55385
LeftLeg  1.84446 8.47904 -3.14353
LeftFoot  -1.035 -0.096733 1.17027
LeftToes  1.09107e-011 -5.80176e-011 5.60941e-012
167
root  47.9488 40.6176 2.55313 51.752 89.0583 52.932
RightUpLeg  -1.20737 -8.24474 -6.33103
RightLeg  5.30084 2.34878 3.25429
RightFoot  -0.972068 0.0229533 -0.261606
RightToes  -2.9104e-010 0 -3.6325e-017
Spine  3.81332 2.87972 6.24059
Spine1  15.1536 5.62798 -7.18812
HEad  -19.9339 -3.19818 -0.78976
LeftShoulder1  9.46542 -14.8035 -45.0581
LeftArm  -11.5021 12.9893 -27.9495
LeftForeArm  28.8714 -28.6066 -4.61344
LeftHand  -0.244104 0.0205437 5.32207
RightShoulder  7.0794 12.519 38.1268
RightArm  10.0137 31.6624 33.5048
RightForeArm  -34.742 47.0475 14.0409
RightHand  -2.75508 7.87151 -24.0946
LeftUpLeg  1.66477 3.82589 1.51471
LeftLeg  1.91802 8.29136 -3.15266
LeftFoot  -1.05791 -0.0995521 1.17827
LeftToes  1.09107e-011 -5.80176e-011 5.60941e-012
